<?xml version="1.0" standalone="no"?>
<!DOCTYPE svg PUBLIC "-//W3C//DTD SVG 20010904//EN"
 "http://www.w3.org/TR/2001/REC-SVG-20010904/DTD/svg10.dtd">
<svg version="1.0" xmlns="http://www.w3.org/2000/svg"
 width="518.000000pt" height="512.000000pt" viewBox="0 0 518.000000 512.000000"
 preserveAspectRatio="xMidYMid meet">

<g transform="translate(0.000000,512.000000) scale(0.100000,-0.100000)"
fill="#000000" stroke="none">
<path d="M812 4048 l3 -513 813 -3 c446 -1 812 1 812 5 0 9 -52 91 -380 598
-75 116 -167 258 -205 318 l-69 107 -488 0 -488 0 2 -512z"/>
<path d="M3402 4048 l3 -513 483 -3 482 -2 0 515 0 515 -485 0 -485 0 2 -512z"/>
<path d="M3950 2640 l0 -680 65 0 65 0 0 324 c0 300 2 329 21 391 41 135 149
203 305 193 93 -6 165 -44 211 -112 54 -79 56 -94 60 -458 l5 -338 59 0 60 0
-3 368 -3 367 -28 60 c-38 81 -70 120 -130 160 -157 104 -386 80 -507 -52
l-50 -55 0 256 0 256 -65 0 -65 0 0 -680z"/>
<path d="M700 2969 c-158 -31 -293 -165 -346 -344 -24 -81 -24 -247 0 -330 79
-266 318 -403 596 -339 121 27 239 124 291 239 29 62 27 65 -46 65 l-65 0 -15
-36 c-26 -64 -73 -112 -141 -145 -55 -28 -75 -32 -147 -33 -114 -1 -175 22
-248 94 -78 77 -101 139 -107 290 -7 179 24 277 113 359 60 55 119 81 203 88
78 6 160 -13 223 -53 42 -26 96 -93 105 -131 6 -21 11 -23 75 -23 41 0 69 4
69 10 0 19 -52 114 -83 154 -91 115 -290 172 -477 135z"/>
<path d="M1881 2965 c-303 -85 -443 -450 -290 -760 116 -236 399 -332 633
-215 52 26 139 108 164 154 l17 31 3 -107 3 -108 64 0 65 0 0 500 0 500 -65 0
-65 0 0 -107 0 -108 -35 53 c-45 66 -118 124 -192 153 -76 28 -225 35 -302 14z
m301 -127 c119 -55 197 -163 219 -305 28 -192 -55 -369 -209 -445 -61 -30 -75
-33 -157 -33 -77 1 -98 5 -146 28 -224 109 -298 425 -150 641 38 55 122 114
189 133 73 20 186 12 254 -19z"/>
<path d="M3125 2966 c-150 -38 -245 -147 -245 -281 0 -123 63 -195 207 -238
49 -14 124 -35 168 -46 107 -26 126 -34 169 -71 89 -78 66 -204 -48 -262 -61
-31 -184 -31 -250 1 -53 26 -101 89 -112 148 l-6 33 -64 0 c-61 0 -64 -1 -64
-25 0 -39 37 -127 71 -168 79 -96 242 -139 401 -106 61 13 142 51 176 82 96
89 107 257 24 349 -54 60 -90 75 -301 128 -140 35 -164 45 -205 88 -30 32 -44
97 -32 147 12 48 74 104 134 121 143 42 282 -31 306 -161 l7 -35 66 0 66 0 -7
43 c-17 106 -81 192 -176 236 -66 30 -204 39 -285 17z"/>
<path d="M810 1090 l0 -510 485 0 485 0 0 510 0 510 -485 0 -485 0 0 -510z"/>
<path d="M2750 1595 c0 -7 16 -32 362 -567 l290 -448 484 0 484 0 0 510 0 510
-810 0 c-445 0 -810 -2 -810 -5z"/>
</g>
</svg>
